<svg width="48" height="48" viewBox="0 0 48 48" fill="none" xmlns="http://www.w3.org/2000/svg">
<path d="M24 0C37.2548 0 48 10.7452 48 24C48 37.2548 37.2548 48 24 48C10.7452 48 0 37.2548 0 24C0 10.7452 10.7452 0 24 0Z" fill="#D32F2F"/>
<path d="M24 0C37.2548 0 48 10.7452 48 24C48 37.2548 37.2548 48 24 48C10.7452 48 0 37.2548 0 24C0 10.7452 10.7452 0 24 0Z" stroke="#E5E7EB"/>
<path d="M31.875 38H16.125V10H31.875V38Z" stroke="#E5E7EB"/>
<g clip-path="url(#clip0_0_109)">
<path d="M30.75 15.25C30.1875 15.25 26.25 16.375 26.25 21.4375V25.375C26.25 26.616 27.259 27.625 28.5 27.625H29.625V32.125C29.625 32.7473 30.1277 33.25 30.75 33.25C31.3723 33.25 31.875 32.7473 31.875 32.125V27.625V23.6875V16.375C31.875 15.7527 31.3723 15.25 30.75 15.25ZM18.375 15.8125C18.375 15.5242 18.1605 15.2852 17.8723 15.2535C17.584 15.2219 17.3273 15.4117 17.2641 15.6895L16.1988 20.4813C16.1496 20.7027 16.125 20.9277 16.125 21.1527C16.125 22.7664 17.359 24.0918 18.9375 24.2359V32.125C18.9375 32.7473 19.4402 33.25 20.0625 33.25C20.6848 33.25 21.1875 32.7473 21.1875 32.125V24.2359C22.766 24.0918 24 22.7664 24 21.1527C24 20.9277 23.9754 20.7027 23.9262 20.4813L22.8609 15.6895C22.7977 15.4082 22.534 15.2219 22.2492 15.2535C21.9645 15.2852 21.75 15.5242 21.75 15.8125V20.5305C21.75 20.7203 21.5953 20.875 21.4055 20.875C21.2262 20.875 21.0785 20.7379 21.0609 20.5586L20.6215 15.7633C20.5969 15.4715 20.3543 15.25 20.0625 15.25C19.7707 15.25 19.5281 15.4715 19.5035 15.7633L19.0676 20.5586C19.05 20.7379 18.9023 20.875 18.723 20.875C18.5332 20.875 18.3785 20.7203 18.3785 20.5305V15.8125H18.375ZM20.073 21.1562H20.0625H20.052L20.0625 21.1316L20.073 21.1562Z" fill="white"/>
</g>
<defs>
<clipPath id="clip0_0_109">
<path d="M16.125 15.25H31.875V33.25H16.125V15.25Z" fill="white"/>
</clipPath>
</defs>
</svg>
